<svg width="32" height="32" viewBox="0 0 32 32" xmlns="http://www.w3.org/2000/svg">
  <!-- Fondo azul oscuro -->
  <rect width="32" height="32" fill="#2c3e50" rx="6"/>
  
  <!-- Cerebro rojo -->
  <path d="M16 8c-2 0-4 1-5 3-1-1-3-1-4 1-1 2 0 4 1 5-1 2-1 4 1 5 2 1 4 0 5-1 1 1 3 1 4-1 1-2 0-4-1-5 1-2 1-4-1-5-2-1-4 0-5 1-1-2-3-2-5-1z" fill="#e74c3c"/>
  
  <!-- Detalles del cerebro -->
  <circle cx="12" cy="14" r="1" fill="#c0392b"/>
  <circle cx="20" cy="14" r="1" fill="#c0392b"/>
  <path d="M14 18c1 0 2 1 2 2s-1 2-2 2-2-1-2-2 1-2 2-2z" fill="#c0392b"/>
  <path d="M18 18c1 0 2 1 2 2s-1 2-2 2-2-1-2-2 1-2 2-2z" fill="#c0392b"/>
  
  <!-- Texto "P" -->
  <text x="16" y="28" font-family="Arial, sans-serif" font-size="8" font-weight="bold" text-anchor="middle" fill="white">P</text>
</svg>
